<?xml version="1.0" standalone="no"?>
<!DOCTYPE svg PUBLIC "-//W3C//DTD SVG 20010904//EN"
 "http://www.w3.org/TR/2001/REC-SVG-20010904/DTD/svg10.dtd">
<svg version="1.0" xmlns="http://www.w3.org/2000/svg"
 width="2048.000000pt" height="2048.000000pt" viewBox="0 0 2048.000000 2048.000000"
 preserveAspectRatio="xMidYMid meet">
<metadata>
Created by potrace 1.14, written by Peter Selinger 2001-2017
</metadata>
<g transform="translate(0.000000,2048.000000) scale(0.100000,-0.100000)"
fill="#000000" stroke="none">
<path d="M10117 20324 c-1 -1 -101 -5 -222 -8 -121 -4 -238 -9 -260 -11 -22
-2 -85 -6 -140 -9 -142 -10 -255 -20 -340 -31 -16 -2 -61 -7 -100 -10 -38 -4
-72 -8 -75 -10 -3 -2 -34 -6 -69 -9 -73 -8 -76 -8 -291 -42 -85 -14 -186 -31
-225 -39 -38 -7 -90 -17 -115 -20 -24 -4 -48 -8 -51 -11 -4 -2 -24 -6 -45 -10
-22 -3 -106 -21 -189 -41 -82 -19 -157 -36 -165 -38 -113 -25 -397 -104 -640
-179 -126 -39 -513 -173 -565 -196 -11 -5 -119 -49 -240 -98 -121 -49 -251
-104 -290 -122 -187 -87 -603 -295 -710 -355 -66 -37 -138 -78 -160 -90 -209
-119 -510 -307 -710 -446 -97 -67 -377 -270 -385 -279 -3 -3 -32 -25 -65 -50
-33 -25 -62 -47 -65 -50 -3 -3 -48 -39 -100 -80 -52 -41 -102 -82 -110 -90 -9
-8 -38 -33 -65 -55 -49 -40 -107 -90 -179 -155 -22 -19 -51 -45 -65 -58 -396
-354 -836 -824 -1175 -1253 -160 -205 -506 -686 -506 -705 0 -3 -5 -10 -11
-17 -16 -18 -116 -177 -201 -317 -84 -139 -102 -171 -200 -350 -38 -69 -73
-132 -78 -140 -15 -25 -181 -360 -220 -445 -20 -44 -49 -105 -63 -135 -155
-331 -367 -909 -483 -1315 -18 -66 -38 -133 -43 -150 -10 -32 -71 -268 -77
-298 -2 -10 -5 -26 -8 -35 -3 -9 -7 -28 -10 -42 -2 -14 -20 -97 -39 -185 -33
-150 -56 -264 -62 -310 -2 -11 -10 -58 -19 -105 -8 -47 -18 -105 -21 -130 -3
-25 -8 -52 -10 -60 -2 -8 -7 -40 -10 -70 -3 -30 -8 -68 -10 -85 -9 -62 -16
-111 -20 -140 -2 -16 -7 -59 -10 -95 -3 -36 -7 -75 -9 -86 -2 -10 -7 -62 -11
-114 -4 -52 -8 -111 -10 -130 -6 -64 -18 -523 -18 -680 1 -171 12 -626 18
-687 2 -21 6 -93 10 -161 4 -67 8 -141 10 -165 2 -23 7 -85 10 -137 4 -52 8
-97 10 -100 2 -3 6 -43 10 -90 4 -47 9 -93 10 -102 2 -9 7 -48 10 -85 4 -37 9
-76 11 -87 2 -10 6 -44 9 -75 4 -31 8 -63 10 -71 2 -8 7 -35 10 -60 17 -130
73 -428 120 -640 10 -48 67 -269 74 -290 5 -14 14 -45 21 -70 25 -87 61 -194
75 -219 8 -14 47 -125 86 -246 40 -121 76 -227 80 -235 4 -8 24 -62 45 -120
20 -58 45 -123 55 -145 9 -22 36 -87 59 -145 23 -58 53 -129 66 -158 13 -29
24 -54 24 -57 0 -9 135 -295 215 -455 560 -1123 1348 -2159 2275 -2989 58 -52
121 -108 140 -125 32 -29 274 -231 310 -259 8 -7 44 -35 80 -63 726 -568 1547
-1048 2371 -1384 96 -39 183 -75 194 -80 30 -14 151 -58 235 -86 41 -14 84
-30 95 -35 77 -36 584 -187 860 -258 316 -80 828 -179 1060 -206 51 -6 94 -12
130 -19 11 -2 58 -7 105 -11 47 -4 87 -8 90 -10 3 -1 43 -6 90 -10 47 -3 101
-8 120 -10 19 -2 80 -6 135 -10 55 -4 116 -8 135 -10 55 -6 451 -17 595 -17
129 -1 533 11 610 17 22 2 83 6 135 10 52 3 110 8 130 10 19 2 69 6 110 10 41
4 82 9 91 10 8 2 51 6 94 10 43 3 81 8 84 10 3 1 40 6 81 10 41 4 77 8 80 10
3 2 29 6 59 10 30 4 62 8 72 10 9 2 39 7 66 11 26 3 57 8 68 10 11 2 47 9 80
15 47 8 294 56 385 74 183 37 595 146 840 222 316 98 882 305 914 334 6 5 15
9 22 9 16 0 333 144 529 241 234 115 576 299 606 325 8 8 18 14 22 14 7 0 134
76 282 168 105 66 450 298 515 347 25 19 63 46 85 62 82 57 382 289 400 309 6
6 19 17 31 25 12 8 48 38 81 66 33 29 73 63 89 75 16 13 36 30 44 38 9 8 47
42 85 75 229 200 641 612 850 850 44 50 84 95 90 101 5 6 28 33 50 60 22 26
57 68 78 92 168 196 440 562 622 834 63 95 120 178 125 185 6 7 10 15 10 18 0
4 13 25 28 48 57 84 221 361 319 542 57 105 276 544 332 665 100 218 231 547
330 830 66 186 191 590 216 700 2 8 24 94 49 190 24 96 46 189 49 205 3 17 12
59 21 95 8 36 17 76 20 90 2 14 18 99 35 190 17 91 33 182 36 204 2 21 6 46 9
55 3 9 7 39 11 66 3 28 7 61 10 75 6 33 13 84 20 145 3 28 8 66 11 85 6 37 8
54 18 165 4 39 9 86 11 105 7 57 19 214 32 435 10 170 10 884 0 1050 -9 134
-15 228 -22 295 -2 25 -6 79 -10 120 -3 41 -7 91 -10 110 -2 19 -7 58 -10 85
-15 137 -65 488 -81 570 -2 11 -7 36 -10 55 -4 27 -73 376 -89 450 -19 91
-108 435 -151 582 -127 439 -338 1015 -489 1333 -13 28 -42 91 -65 140 -87
186 -249 501 -352 683 -10 17 -27 47 -37 66 -68 119 -330 540 -368 591 -5 6
-33 46 -63 90 -155 228 -426 585 -564 745 -17 20 -51 60 -76 90 -25 29 -49 58
-55 64 -5 6 -41 47 -80 91 -113 130 -168 187 -400 420 -215 215 -295 292 -445
425 -40 36 -78 70 -84 75 -17 15 -198 168 -220 185 -10 8 -33 27 -50 41 -36
30 -261 205 -297 231 -13 10 -53 39 -89 65 -36 27 -97 71 -135 98 -83 60 -393
268 -415 278 -8 4 -42 25 -75 46 -55 37 -243 151 -290 176 -11 6 -42 24 -70
40 -333 190 -763 401 -1085 532 -47 19 -98 40 -115 47 -74 32 -161 66 -168 66
-5 0 -23 7 -40 15 -65 30 -454 163 -662 225 -110 33 -323 92 -375 105 -8 2
-73 17 -145 34 -71 17 -146 36 -165 41 -19 5 -51 12 -70 15 -19 3 -55 11 -80
16 -42 10 -222 44 -280 54 -14 2 -81 14 -150 25 -69 11 -136 23 -150 25 -14 2
-47 7 -75 10 -27 3 -59 7 -70 9 -12 2 -48 7 -80 11 -33 4 -71 8 -85 10 -33 5
-108 13 -195 21 -108 10 -133 12 -240 19 -55 4 -120 8 -145 10 -107 8 -697 24
-703 19z"/>
</g>
</svg>
